# xmcd
#
# Track frame offsets: 
#        150
#        21580
#        39430
#        66975
#        85262
#        102147
#        122922
#        144340
#        167157
#        186397
#
# Disc length: 2814 seconds
#
# Revision: 1
# Processed by: cddbd v1.5.2PL0 Copyright (c) Steve Scherf et al.
# Submitted via: ExactAudioCopy v1.0b3
#
DISCID=8c0afc0a
DTITLE=THE MODS - EASY COME EASY GO
DYEAR=1988
DGENRE=Punk Rock
TTITLE0=ACE BOON
TTITLE1=BROKEN DOWN BOOGIE
TTITLE2=ANGEL
TTITLE3=EASY COME EASY GO
TTITLE4=PLEASE DON'T LET ME DOWN
TTITLE5=BOYS DON'T CRY
TTITLE6=LOVE YOU
TTITLE7=IT'S TOO LATE
TTITLE8=HIT ME MORE
TTITLE9=HOME SWEET BABY
EXTD=YEAR: 1988
EXTT0=
EXTT1=
EXTT2=
EXTT3=
EXTT4=
EXTT5=
EXTT6=
EXTT7=
EXTT8=
EXTT9=
PLAYORDER=
